HIERARCHY
ROOT Hips
{
	OFFSET -0.273032467702 -23.9815823879 2.20702407624
	CHANNELS 6 Xposition Yposition Zposition Zrotation Yrotation Xrotation
	JOINT LeftHip
	{
		OFFSET 6.63184344148 -9.08909278123 -1.00131105088
		CHANNELS 3 Zrotation Yrotation Xrotation
		JOINT LeftKnee
		{
			OFFSET 3.32754033662 -35.8138191455 -0.123354056446
			CHANNELS 3 Zrotation Yrotation Xrotation
			JOINT LeftFoot
			{
				OFFSET -1.37531969131 -37.4816863008 -4.16697247494
				CHANNELS 3 Zrotation Yrotation Xrotation
				End LeftToe
				{
                                  OFFSET 2.43390418691 -5.31040446807 11.6661863851
				}
			}
		}
	}
	JOINT RightHip
	{
		OFFSET -6.43987202639 -8.95658187019 -0.780749004103
		CHANNELS 3 Zrotation Yrotation Xrotation
		JOINT RightKnee
		{
			OFFSET -3.66078176435 -36.6527288307 -0.557913724282
			CHANNELS 3 Zrotation Yrotation Xrotation
			JOINT RightFoot
			{
				OFFSET 1.59915765578 -37.5128871698 -4.01291794192
				CHANNELS 3 Zrotation Yrotation Xrotation
				End RightToe
				{
                                        OFFSET -2.25452110183 -4.57802866006 12.047493515
				}
			}
		}
	}
	JOINT Waist
	{
		OFFSET -0.270790279436 10.8756475271 -2.28886602547
		CHANNELS 3 Zrotation Yrotation Xrotation
		JOINT Spine
		{
			OFFSET 0.657235527503 14.6998536146 0.424197952933
			CHANNELS 3 Zrotation Yrotation Xrotation
                        JOINT Chest
                        {
                            OFFSET 0.136713008216 5.62633582711 2.41834660708
                            CHANNELS 3 Zrotation Yrotation Xrotation
                            JOINT Neck
                            {
                                OFFSET -0.372960274921 21.6726751487 -4.13380108151
                                CHANNELS 3 Zrotation Yrotation Xrotation
                                End Head
                                {
                                        OFFSET 0.0714305646766 27.4802346937 2.29996528185
                                }
                            }
                            JOINT LeftInnerShoulder
                            {
                                OFFSET 7.68388901744 12.0896907898 -3.25870162373
                                CHANNELS 3 Zrotation Yrotation Xrotation
                                JOINT LeftShoulder
                                {
                                        OFFSET 9.07843791517 2.79336703169 -0.827563686993
                                        CHANNELS 3 Zrotation Yrotation Xrotation
                                        JOINT LeftElbow
                                        {
                                                OFFSET 24.8193038955 -1.12743443369 -2.48799138363
                                                CHANNELS 3 Zrotation Yrotation Xrotation
                                                End LeftWrist
                                                {
                                                        OFFSET 23.6635607351 0.72186339395 -0.143896494466
                                                }
                                        }
                                }
                            }
                            JOINT RightInnerShoulder
                            {
                                OFFSET -8.0185167012 11.747374444 -3.75428398288
                                CHANNELS 3 Zrotation Yrotation Xrotation
                                JOINT RightShoulder
                                {
                                        OFFSET -9.55554681638 3.02632951423 -0.899920190983
                                        CHANNELS 3 Zrotation Yrotation Xrotation
                                        JOINT RightElbow
                                        {
                                                OFFSET -24.0970641767 -1.15412623515 -1.94496972005
                                                CHANNELS 3 Zrotation Yrotation Xrotation
                                                End RightWrist
                                                {
                                                        OFFSET -24.1765924146 0.518017554938 -0.617774920344
                                                }
                                        }
                                }
                            }
                        }
                }
            }
}
MOTION
Frames: 22
Frame Time: 0.0333333333333
0.00000 0.00000 0.00000 177.32062 43.12240 165.89239 10.56556 8.33473 2.12194 -0.87000 5.82573 11.72018 -0.69783 6.32982 -2.38343 -18.11832 -4.21939 -5.27825 0.36937 7.70081 18.18330 14.78691 -4.60962 4.92569 2.33295 -1.55910 7.82361 1.54894 -3.93011 5.22066 0.92589 -2.85505 1.69166 1.64031 -12.28399 0.47277 -5.53850 -22.69210 -5.18432 -58.84391 -50.92171 18.73584 70.90414 -71.73897 -55.24348 1.31142 16.63024 -11.83467 44.37711 29.78849 7.28191 -96.13919 41.06530 -91.93428
-2.70803 -0.35995 0.00080 175.84762 47.46513 164.58763 11.28144 9.67230 3.38616 -1.23050 7.30966 10.56339 -1.28325 6.88985 -2.44819 -18.43565 -4.36951 -10.15411 1.23664 6.00234 21.34391 15.13067 -5.08047 3.96391 2.11858 -2.33966 8.30580 2.23472 -3.27329 5.09825 1.16905 -2.80369 1.60445 2.32060 -8.45106 -0.59795 -6.06957 -21.96776 -4.64759 -55.59924 -49.66918 17.05897 77.03513 -72.76513 -61.02308 3.95115 17.71573 -10.86840 45.61507 31.87585 9.18019 -96.27010 41.55610 -92.91815
-2.44950 -1.75923 0.02578 174.06755 53.26304 162.41313 12.73390 11.46625 5.11985 -2.07670 6.90956 11.18843 -1.31790 6.94440 -5.41609 -18.28316 -4.80312 -16.91137 2.04303 3.58975 28.85143 16.18480 -3.20464 4.44685 0.93539 -3.20202 10.17327 3.13808 -3.56022 4.99399 1.59955 -2.91867 1.39311 1.70597 -3.80924 -0.20957 -2.03925 -22.71506 -4.82620 -53.63382 -47.22558 14.46901 88.04532 -73.62153 -68.17160 2.93041 18.45956 -10.20305 53.13375 32.85708 12.69791 -101.92214 44.22413 -92.53686
-1.61243 -2.66148 0.04619 172.21979 57.86165 158.60634 12.72887 11.00136 9.49569 -2.35865 2.50705 7.71705 1.06309 6.83241 -9.18195 -17.76519 -4.55827 -22.58533 2.55843 1.88085 36.26386 15.65921 -4.12054 2.50377 -0.13238 -4.39513 12.30566 3.06660 -3.31663 6.49782 1.35558 -3.41625 1.22011 2.47495 0.88128 0.90070 -3.60351 -24.78223 -4.19211 -47.32782 -47.68754 8.74662 86.08959 -71.75623 -65.56337 6.64760 20.40008 -9.22982 56.48350 33.06733 15.78522 -101.99042 47.23378 -87.39848
3.03595 -6.63719 0.05228 170.33484 63.10778 156.07036 16.68417 12.70194 10.57043 -1.99455 4.39948 11.48356 -0.27588 7.60646 -8.88173 -15.76085 -3.83264 -26.77839 3.42365 0.52307 37.83908 14.57764 -2.64229 -0.36624 -0.92250 -5.52443 13.47015 2.69809 -4.00841 6.73317 1.23987 -4.30457 0.62117 3.69363 6.28935 -0.10941 -5.83784 -26.90368 -2.92342 -46.25697 -49.37072 5.23343 86.96241 -67.85009 -63.00602 9.50300 20.64162 -7.52053 62.21472 30.16289 17.84496 -103.61999 51.13495 -81.54444
9.08987 -9.98489 0.05762 168.16704 66.13493 154.82919 16.65022 12.94156 10.54501 -2.19845 4.63764 12.92243 0.68632 7.44533 -10.43435 -15.12058 -3.16187 -30.57507 3.10335 -0.13132 33.72071 16.89753 -1.42313 2.61900 -1.69752 -5.87996 13.54042 3.40428 -4.85407 4.92600 1.21688 -4.86788 0.58266 0.95516 10.63751 0.94758 -4.00798 -26.41601 -3.73480 -43.08547 -48.66064 2.58916 81.27480 -67.35061 -56.78263 12.07137 18.29426 -6.56090 65.59882 25.68164 20.56846 -108.20359 53.98340 -81.69172
14.17763 -12.77937 0.07273 168.99374 63.36662 154.07894 18.64964 14.31145 12.22537 -2.72025 3.87216 16.68054 1.23272 7.87352 -12.63887 -15.40556 -3.14329 -29.11539 3.64930 0.50138 35.46988 17.28533 -2.76120 1.61576 -2.71860 -5.55446 14.10719 4.44203 -6.35494 5.45698 1.37958 -6.13579 0.68298 1.20439 10.45163 0.58659 -4.97703 -28.71633 -3.19348 -30.71894 -50.19639 -5.99105 66.39553 -67.21529 -44.58424 15.21008 15.91337 -6.25744 65.28487 16.17420 20.85783 -123.16554 55.18555 -96.44255
23.92916 -14.64597 0.03677 170.86053 62.69325 156.24126 18.22051 14.25419 11.87952 -2.47057 2.94885 21.02095 0.20759 8.37796 -10.56121 -15.20256 -4.10831 -30.64949 3.76920 -0.81594 39.11630 17.64020 -2.48077 1.49838 -2.44037 -5.27000 13.29507 4.59219 -5.94611 3.79886 1.31402 -5.70229 1.04017 0.68185 11.12115 0.94025 -2.02550 -26.82442 -3.99416 -34.38287 -49.09534 -4.56492 60.62031 -69.22524 -34.60378 12.89412 12.03272 -6.28100 69.74587 10.69996 20.20730 -133.75908 53.72411 -102.43579
31.07863 -13.54836 0.02924 173.45086 56.18495 160.56469 20.30480 16.02387 9.34266 -4.71866 7.22639 26.95421 -0.79621 6.03565 -8.68959 -17.27085 -6.80183 -28.32916 4.20559 -3.38398 38.46723 18.93705 -1.03240 1.70761 -2.04174 -4.77235 10.81269 5.44525 -6.77896 2.90784 1.08262 -5.91667 1.09746 -1.07496 10.08251 1.62018 -0.38678 -23.25366 -3.56033 -41.89249 -48.07478 -0.29461 81.06759 -72.37357 -53.07144 13.28145 7.45834 -4.84482 72.92550 5.94590 19.57284 -145.47872 48.71433 -110.39088
35.88804 -7.32179 -0.02690 178.86424 52.63333 165.62915 22.36076 17.95571 9.23209 -4.58290 11.71054 31.98759 -4.90370 6.53227 -2.65635 -15.77015 -7.74903 -24.03462 4.85187 -2.96907 30.03937 17.13239 0.39459 1.73046 -1.66460 -4.05192 6.60480 6.21401 -6.32205 3.38859 1.60254 -4.72345 2.06885 1.96954 8.26144 4.22711 3.73817 -17.69364 -2.99396 -52.53901 -47.16055 6.80909 99.69604 -76.45712 -68.50310 8.63092 5.09933 -5.30865 75.86350 11.71567 19.24738 -138.45453 49.45288 -103.10488
44.56337 -3.05979 -0.08464 -175.32673 26.99617 169.28653 21.81130 14.92521 7.46720 -0.55985 12.27900 23.57319 -5.63204 9.86411 0.75323 -15.59171 -5.04210 -7.63415 2.16822 5.02957 14.65223 16.52020 -0.65518 9.44009 -2.70970 -3.03126 4.50015 4.65089 -8.95300 5.65117 2.22301 -6.61505 2.31435 4.45262 -6.36168 6.26707 2.76156 -18.63666 -2.04923 -58.22027 -50.42043 15.15392 89.91449 -79.27410 -69.63531 0.33209 1.66890 -9.08033 71.32632 12.15230 15.16843 -123.67495 40.20858 -105.86252
52.94155 -2.67981 -0.10802 -174.35576 2.51643 165.11093 25.39850 11.20715 4.71006 -2.73337 4.20038 27.23148 -12.33418 10.94181 -1.57009 -13.05635 0.24499 4.60704 2.08152 20.20849 17.80498 19.90639 -3.83952 11.07724 -6.45808 -4.80025 4.77511 2.94582 -13.89184 11.81621 0.75043 -9.50837 2.14578 6.04677 -11.49376 3.91435 4.50929 -24.49779 -0.89448 -33.73746 -45.39163 4.29389 89.31166 -82.39196 -82.32179 -4.93606 6.07609 -12.05283 46.97729 14.52680 1.45887 -86.61361 36.92542 -87.16384
59.73176 -8.00185 -0.08573 -174.05264 -7.82754 163.90699 27.97839 8.72480 -0.23033 -3.20199 2.08924 33.56203 -12.05087 15.32023 -0.34619 -13.51610 -1.50707 1.30870 6.31824 19.43191 35.01414 15.56154 -6.90014 5.54743 -4.71280 -4.73902 7.19456 -1.25116 -8.88724 8.84696 -0.57436 -7.15129 1.47593 2.15145 -22.56291 3.83511 -2.34348 -27.47009 -1.85507 -31.39401 -50.10408 13.49878 4.40350 -86.06055 3.90857 -6.83249 11.95111 -9.19613 10.78793 3.21084 -14.75293 -21.15456 16.61908 -46.75678
61.89507 -9.16000 -0.10938 -174.19228 -11.33352 164.97088 28.84879 8.71611 -2.86360 -4.61106 3.01816 36.24013 -8.63730 15.57954 2.41529 -13.37133 -3.36125 -1.96305 7.80157 17.52243 43.08350 12.50487 -6.43600 5.62901 -2.97572 -5.92902 6.23447 -4.95044 -5.79660 6.77410 -2.10138 -6.14886 2.06120 -2.32033 -24.81734 11.03674 -1.03748 -21.78183 -2.81219 -45.29572 -47.45823 21.72869 -75.39159 -85.83681 95.42846 -13.52956 10.52436 -7.42852 8.87790 3.77502 -13.22708 -4.58095 6.83684 -18.57180
62.82339 -11.06664 -0.15863 -173.58851 -9.19121 163.72495 27.80594 7.22180 -0.11034 -3.17854 1.18545 34.53837 -8.12644 16.57850 -1.02226 -11.62372 -2.02170 -0.92637 8.36613 18.46892 43.27846 12.00819 -5.30791 4.43016 -3.66474 -5.63420 4.87782 -5.60287 -4.55081 8.21425 -1.80649 -5.83257 2.75389 3.07815 -22.09438 10.36280 -5.49078 -17.57208 -0.27971 -53.30564 -39.73535 24.97291 174.74689 -86.30503 -156.97496 -13.91240 9.89177 -8.24407 15.06685 10.29269 -10.43356 -11.38777 19.55491 -25.89923
63.49747 -7.41373 -0.19777 -173.13676 -6.44301 165.19506 26.09628 5.75461 0.44963 -3.74734 0.84588 31.67831 -7.72498 12.76438 -0.93664 -10.25551 1.25920 -1.72840 8.16454 19.38731 40.88260 13.47505 -3.27110 4.36924 -4.36453 -4.99514 2.73921 -4.12595 -5.00689 8.37463 -2.13682 -6.20760 2.45818 5.36467 -17.97283 9.76727 -10.89653 -14.99247 2.03289 -52.99845 -35.12357 22.87922 162.59560 -80.68001 -146.50893 -8.61402 6.80424 -6.12981 23.66540 8.88946 1.31782 -40.39608 62.46209 -37.10776
64.06958 -7.54242 -0.22714 -173.63377 -7.08217 165.66055 26.34754 6.05183 1.97350 -3.03636 1.66514 27.99544 -7.97733 10.75132 1.60439 -10.82109 1.49905 -0.07990 7.84771 18.08452 39.23427 13.32734 -3.10215 4.26555 -5.06644 -4.67202 2.43639 -3.54778 -6.58372 10.09204 -2.50446 -6.98841 1.30664 5.74981 -16.34491 7.95021 -12.32554 -19.28739 2.45342 -47.22014 -35.83953 19.03510 162.95628 -78.55621 -145.79259 -4.95434 7.33691 -5.99078 28.52178 6.79580 5.07920 -99.34672 71.00039 -87.35133
61.62531 -10.58938 -0.23836 -172.39091 -4.72040 165.24738 27.15785 5.48930 0.76169 -3.47429 1.15396 31.52056 -7.72744 10.45317 -1.98136 -11.48474 1.61673 -0.57142 7.63147 17.51206 36.91885 13.66105 -3.19731 4.31693 -6.21203 -3.48294 2.66752 -0.85992 -7.60787 9.60893 -1.15476 -6.90006 0.46262 5.94217 -13.20267 7.05294 -10.69677 -22.35721 1.77797 -36.23398 -39.28736 14.73853 159.16023 -80.69132 -148.38546 -1.65720 8.48037 -6.21324 26.10565 6.64740 5.96957 -111.41411 66.81878 -102.83755
62.54973 -9.53488 -0.24269 -173.04921 -3.00746 165.31708 27.00043 7.38647 0.34169 -3.52014 2.06498 32.96148 -8.28547 12.57431 -4.09366 -11.01020 1.28576 -1.75552 7.03475 18.35571 36.61106 13.33388 -4.03401 3.36792 -6.25866 -3.82225 4.70729 0.34049 -8.08424 7.42698 -0.74270 -6.62810 0.21935 4.82294 -14.71367 5.79294 -5.15132 -22.47980 -0.96606 -22.64764 -39.35450 7.22717 -176.30834 -81.98484 -169.04830 -1.75430 9.62671 -7.39352 20.43351 6.69797 4.32762 -79.66317 72.85506 -68.89998
61.63331 -9.40583 -0.23781 -173.54700 -0.37072 165.86336 26.45312 7.69376 -0.14322 -3.49914 3.01125 33.68672 -9.28897 14.66304 -1.64009 -10.30273 2.08851 -2.47538 5.92482 20.75762 32.67607 13.68185 -4.43168 4.85033 -5.71412 -3.68530 4.33481 0.31868 -7.89259 6.92048 -0.33425 -6.04171 1.05151 2.78029 -14.74551 7.40455 0.48876 -22.89382 -3.45828 -19.81335 -42.32647 4.44352 124.64521 -87.23934 -118.02513 -6.95653 10.14601 -8.07965 20.24073 7.46551 4.80687 -55.20998 70.77870 -51.33879
59.08449 -9.84850 -0.25440 -175.04052 1.54175 165.82846 26.07484 9.25355 0.50764 -3.89190 3.00663 33.91773 -9.08530 14.89680 -3.96826 -10.16767 2.38893 -3.51657 6.66948 22.73333 34.16097 13.81501 -6.37796 1.47533 -5.07790 -4.99178 4.45818 -0.25658 -8.00825 6.42193 -1.06104 -6.68833 1.84761 3.09122 -13.00826 4.53200 1.94556 -22.40474 -4.66179 -14.04888 -42.15905 -1.50489 39.19171 -82.81451 -35.05412 -7.44502 11.31419 -10.14026 17.68832 12.19291 3.06474 -35.43924 64.61204 -36.31621
57.44177 -10.15847 -0.22399 -174.80688 5.45544 165.96485 25.02697 9.94255 1.02698 -3.79464 5.15088 33.75135 -10.17661 16.51418 -4.01876 -10.76245 1.86051 -2.00464 4.90116 24.49269 28.97718 15.94984 -6.78264 3.96399 -4.66683 -5.28200 3.21504 -0.52914 -8.73986 7.88057 -1.11144 -6.57383 2.40674 2.61582 -12.70309 5.26712 7.50372 -22.17778 -6.18227 -14.27752 -40.93504 -4.71116 24.59004 -75.08367 -23.05374 -12.30696 12.15902 -12.10490 21.41542 17.87469 0.74287 -25.38494 54.75412 -27.37371
